<?xml version="1.0" encoding="UTF-8"?>
<svg id="Layer_1" data-name="Layer 1" xmlns="http://www.w3.org/2000/svg" viewBox="0 0 38.17245 19.12646">
  <defs>
    <style>
      .cls-1 {
        fill: none;
        stroke: #7d77d7;
        stroke-miterlimit: 10;
      }

      .cls-2 {
        fill: #7d77d7;
      }
    </style>
  </defs>
  <g>
    <path class="cls-1" d="M18.45585,16.17147c2.11633-2.09813,2.48215-4.74483,2.4695-5.50488-.02057-1.23521-.4381-2.31384-.43813-2.31393-.00003-.00008-.00005-.00012-.00005-.00012-.66791-1.87383,1.87846-7.20088-.06183-7.68595-4-1-4.15433,2.84886-5.80096,2.36597-.23801-.0698-1.28488-.36597-2.69904-.36597"/>
    <path class="cls-2" d="M20.36067,18.33601c-.47006-.81418-.93994-1.62848-1.41-2.44266-.13737-.23793-.48086-.34142-.7183-.18834-.24005,.15476-.33532,.46373-.18834,.7183,.47006,.81418,.93994,1.62848,1.41,2.44266,.13737,.23793,.48086,.34142,.7183,.18834,.24005-.15476,.33532-.46373,.18834-.7183h0Z"/>
  </g>
  <path class="cls-2" d="M21.19098,11.70882c.81418-.47006,1.62848-.93994,2.44266-1.41,.23793-.13737,.34143-.48086,.18834-.7183-.15476-.24005-.46373-.33532-.7183-.18834-.81418,.47006-1.62848,.93994-2.44266,1.41-.23793,.13737-.34143,.48086-.18834,.7183,.15476,.24005,.46373,.33532,.7183,.18834h0Z"/>
  <path class="cls-2" d="M20.66114,12.29862c.81418,.47007,1.62825,.94033,2.44243,1.4104,.23795,.13738,.58539,.06322,.7183-.18834,.13237-.25054,.06573-.57161-.18834-.7183-.81418-.47007-1.62825-.94033-2.44243-1.4104-.23795-.13738-.58539-.06322-.7183,.18834-.13237,.25054-.06573,.57161,.18834,.7183h0Z"/>
  <g>
    <path class="cls-1" d="M5.43816,16.17147c-2.11633-2.09813-2.48215-4.74483-2.4695-5.50488,.02057-1.23521,.4381-2.31384,.43813-2.31393,.00003-.00008,.00005-.00012,.00005-.00012,.66791-1.87383-1.87846-7.20088,.06183-7.68595C7.46866-.33341,7.62299,3.51545,9.26962,3.03257c.23801-.0698,1.28488-.36597,2.69904-.36597"/>
    <path class="cls-2" d="M4.43998,18.86597c.47006-.81418,.93994-1.62848,1.41-2.44266,.13738-.23795,.06322-.58539-.18834-.7183-.25053-.13237-.57161-.06573-.7183,.18834-.47006,.81418-.93994,1.62848-1.41,2.44266-.13738,.23795-.06322,.58539,.18834,.7183,.25053,.13237,.57161,.06573,.7183-.18834h0Z"/>
  </g>
  <path class="cls-2" d="M3.23299,10.80217c-.81418-.47006-1.62848-.93994-2.44266-1.41-.23795-.13738-.58539-.06322-.7183,.18834-.13237,.25053-.06573,.57161,.18834,.7183,.81418,.47006,1.62848,.93994,2.44266,1.41,.23795,.13738,.58539,.06322,.7183-.18834,.13237-.25053,.06573-.57161-.18834-.7183h0Z"/>
  <path class="cls-2" d="M2.70292,11.39197c-.81418,.47007-1.62825,.94033-2.44243,1.4104-.23793,.13737-.34143,.48086-.18834,.7183,.15476,.24004,.46373,.33532,.7183,.18834,.81418-.47007,1.62825-.94033,2.44243-1.4104,.23793-.13737,.34143-.48086,.18834-.7183-.15476-.24004-.46373-.33532-.7183-.18834h0Z"/>
  <path class="cls-2" d="M9.04701,7.5505v2c0,.31385,.27597,.61451,.6,.6,.32508-.01456,.6-.26363,.6-.6v-2c0-.31385-.27597-.61451-.6-.6-.32508,.01456-.6,.26363-.6,.6h0Z"/>
  <path class="cls-2" d="M15.04701,7.5505v2c0,.31385,.27597,.61451,.6,.6,.32508-.01456,.6-.26363,.6-.6v-2c0-.31385-.27597-.61451-.6-.6-.32508,.01456-.6,.26363-.6,.6h0Z"/>
  <path class="cls-2" d="M9.69099,12.6577c.59324,.56226,1.29912,1.10676,2.12753,1.24421,.89328,.14821,1.72471-.10243,2.53879-.4558,.2973-.12905,.36492-.56503,.21525-.82091-.17958-.30702-.52246-.3448-.82091-.21525l-.06237,.02707c.03051-.0131,.02724-.012-.00981,.0033-.03984,.01603-.07976,.03185-.11987,.0472-.08646,.03309-.17358,.0645-.26151,.09349-.16997,.05603-.3429,.10362-.5186,.13797-.04321,.00845-.08679,.01473-.13002,.02296,.05307-.0101,.07105-.00721,.00663-.00153-.07452,.00657-.14881,.01257-.22362,.01426-.07264,.00164-.14536,.00041-.21789-.00425-.00325-.00021-.15557-.00986-.0627-.00317,.09016,.00649-.05463-.00949-.06112-.01071-.14261-.02664-.27798-.07043-.41492-.11709-.05964-.02032-.0408-.01819,.00641,.00413-.03802-.01797-.07631-.03506-.11397-.05378-.06986-.03471-.13834-.07215-.20547-.11189-.07843-.04642-.15503-.09602-.22994-.14793-.03123-.02164-.06182-.04414-.09278-.06615-.08193-.05825,.00607,.00703-.04246-.03173-.15908-.12704-.31042-.26293-.45813-.40293-.23515-.22287-.61507-.23346-.84853,0-.225,.225-.23601,.62484,0,.84853h0Z"/>
  <path class="cls-2" d="M25.12201,9.0505c0,1.66667,0,3.33333,0,5,0,.67562,1.05,.67674,1.05,0,0-1.66667,0-3.33333,0-5,0-.67562-1.05-.67674-1.05,0h0Z"/>
  <path class="cls-2" d="M25.64701,9.5755h3.5c.27462,0,.5377-.24148,.525-.525-.01274-.28445-.23068-.525-.525-.525h-3.5c-.27462,0-.5377,.24148-.525,.525,.01274,.28445,.23068,.525,.525,.525h0Z"/>
  <path class="cls-2" d="M26.14701,12.0755h2.5c.27462,0,.5377-.24148,.525-.525-.01274-.28445-.23068-.525-.525-.525h-2.5c-.27462,0-.5377,.24148-.525,.525,.01274,.28445,.23068,.525,.525,.525h0Z"/>
  <path class="cls-2" d="M25.64701,14.5755h3.5c.27462,0,.5377-.24148,.525-.525-.01274-.28445-.23068-.525-.525-.525h-3.5c-.27462,0-.5377,.24148-.525,.525,.01274,.28445,.23068,.525,.525,.525h0Z"/>
  <path class="cls-2" d="M33.62201,9.0505c0,1.66667,0,3.33333,0,5,0,.67562,1.05,.67674,1.05,0,0-1.66667,0-3.33333,0-5,0-.67562-1.05-.67674-1.05,0h0Z"/>
  <path class="cls-2" d="M34.14701,9.5755h3.5c.27462,0,.5377-.24148,.525-.525-.01274-.28445-.23068-.525-.525-.525h-3.5c-.27462,0-.5377,.24148-.525,.525,.01274,.28445,.23068,.525,.525,.525h0Z"/>
  <path class="cls-2" d="M34.64701,12.0755h2.5c.27462,0,.5377-.24148,.525-.525-.01274-.28445-.23068-.525-.525-.525h-2.5c-.27462,0-.5377,.24148-.525,.525,.01274,.28445,.23068,.525,.525,.525h0Z"/>
  <path class="cls-2" d="M34.14701,14.5755h3.5c.27462,0,.5377-.24148,.525-.525-.01274-.28445-.23068-.525-.525-.525h-3.5c-.27462,0-.5377,.24148-.525,.525,.01274,.28445,.23068,.525,.525,.525h0Z"/>
  <path class="cls-2" d="M29.56824,14.37173l4.9-4.9c.47842-.47842-.26383-1.22109-.74246-.74246-1.63333,1.63333-3.26667,3.26667-4.9,4.9-.47842,.47842,.26383,1.22109,.74246,.74246h0Z"/>
  <path class="cls-2" d="M34.46824,13.62926c-1.63333-1.63333-3.26667-3.26667-4.9-4.9-.47842-.47842-1.22109,.26383-.74246,.74246l4.9,4.9c.47842,.47842,1.22109-.26383,.74246-.74246h0Z"/>
</svg>